<?xml version="1.0" encoding="UTF-8"?>
<svg width="39px" height="25px" viewBox="0 0 39 25" version="1.1" xmlns="http://www.w3.org/2000/svg" xmlns:xlink="http://www.w3.org/1999/xlink">
    <!-- Generator: Sketch 52.6 (67491) - http://www.bohemiancoding.com/sketch -->
    <title>Group 3</title>
    <desc>Created with Sketch.</desc>
    <g id="Page-1" stroke="none" stroke-width="1" fill="none" fill-rule="evenodd">
        <g id="Group-3" fill="#FF007F" fill-rule="nonzero">
            <g id="Group-4">
                <g id="Group-3-Copy">
                    <polygon id="Line" points="7 6.8384752 7.00582199 5 32 5.1615248 31.994178 7"></polygon>
                    <g id="Group-2" transform="translate(35.500000, 6.000000) scale(-1, 1) translate(-35.500000, -6.000000) translate(32.000000, 0.000000)">
                        <polygon id="Line-Copy" points="6.46568627 11.6644737 4.70098039 11.6644737 4.70098039 0.335526316 6.46568627 0.335526316"></polygon>
                        <polygon id="Line-Copy-2" points="4.24346405 9.91447368 2.47875817 9.91447368 2.47875817 1.96052632 4.24346405 1.96052632"></polygon>
                        <polygon id="Line-Copy-3" points="2.02124183 8.53947368 0.256535948 8.53947368 0.256535948 3.71052632 2.02124183 3.71052632"></polygon>
                    </g>
                    <g id="Group-2-Copy">
                        <polygon id="Line-Copy" points="6.46568627 11.6644737 4.70098039 11.6644737 4.70098039 0.335526316 6.46568627 0.335526316"></polygon>
                        <polygon id="Line-Copy-2" points="4.24346405 9.91447368 2.47875817 9.91447368 2.47875817 1.96052632 4.24346405 1.96052632"></polygon>
                        <polygon id="Line-Copy-3" points="2.02124183 8.53947368 0.256535948 8.53947368 0.256535948 3.71052632 2.02124183 3.71052632"></polygon>
                    </g>
                </g>
            </g>
            <g id="Group-4-Copy" transform="translate(0.000000, 13.000000)">
                <g id="Group-3-Copy">
                    <polygon id="Line" points="7 6.8384752 7.00582199 5 32 5.1615248 31.994178 7"></polygon>
                    <g id="Group-2" transform="translate(35.500000, 6.000000) scale(-1, 1) translate(-35.500000, -6.000000) translate(32.000000, 0.000000)">
                        <polygon id="Line-Copy" points="6.46568627 11.6644737 4.70098039 11.6644737 4.70098039 0.335526316 6.46568627 0.335526316"></polygon>
                        <polygon id="Line-Copy-2" points="4.24346405 9.91447368 2.47875817 9.91447368 2.47875817 1.96052632 4.24346405 1.96052632"></polygon>
                        <polygon id="Line-Copy-3" points="2.02124183 8.53947368 0.256535948 8.53947368 0.256535948 3.71052632 2.02124183 3.71052632"></polygon>
                    </g>
                    <g id="Group-2-Copy">
                        <polygon id="Line-Copy" points="6.46568627 11.6644737 4.70098039 11.6644737 4.70098039 0.335526316 6.46568627 0.335526316"></polygon>
                        <polygon id="Line-Copy-2" points="4.24346405 9.91447368 2.47875817 9.91447368 2.47875817 1.96052632 4.24346405 1.96052632"></polygon>
                        <polygon id="Line-Copy-3" points="2.02124183 8.53947368 0.256535948 8.53947368 0.256535948 3.71052632 2.02124183 3.71052632"></polygon>
                    </g>
                </g>
            </g>
        </g>
    </g>
</svg>