<?xml version="1.0" encoding="UTF-8"?>
<svg width="160px" height="123px" viewBox="0 0 160 123" version="1.1" xmlns="http://www.w3.org/2000/svg" xmlns:xlink="http://www.w3.org/1999/xlink">
    <!-- Generator: Sketch 52.6 (67491) - http://www.bohemiancoding.com/sketch -->
    <title>Path</title>
    <desc>Created with Sketch.</desc>
    <g id="Page-1" stroke="none" stroke-width="1" fill="none" fill-rule="evenodd">
        <g id="muscle" fill="#FF007F">
            <path d="M75.7049851,58.0719866 C65.6314761,64.0699405 65.6314761,75.4374954 58.875558,80.8175223 C52.7800931,85.6716021 46.875,82.8683036 41.5922619,82.8683036 L43.9499629,51.389509 C43.9499629,48.0850074 46.6378348,45.3971355 49.9414062,45.3971355 C57.1847098,45.3971355 63.0766369,39.5042783 63.0766369,32.2619048 L63.0766369,26.2704614 L40.3785343,26.2704614 C38.4058781,26.2704614 36.8071057,24.670759 36.8071057,22.6990329 L36.8071057,18.8736979 C36.8071057,16.9010417 38.4058781,15.3022693 40.3785343,15.3022693 C42.3502605,15.3022693 43.9499629,16.9010417 43.9499629,18.8736979 L43.9499629,19.1276043 L63.0766369,19.1276043 L63.0766369,13.1352307 C63.0766369,5.89192714 57.1847098,0 49.9414062,0 L30.8147321,0 C27.4265252,0 24.0438988,1.28441214 21.2899926,3.61700143 C18.5360862,5.95052095 16.7131695,9.07552095 16.156064,12.4181548 L0.17392119,108.311942 C-0.412016429,111.822917 0.498511905,115.30692 2.67020095,117.871094 C4.84189,120.434338 8.12872024,121.904762 11.6880581,121.904762 L107.322359,121.904762 C114.565662,121.904762 159.349888,123.880208 159.349888,116.636905 C160.458383,98.3407216 159.750298,88.2288044 157.225632,86.3011533 C155.405957,84.911781 145.61894,84.1708335 127.864583,84.078311 C120.359198,75.4594494 116.774937,62.6597683 109.667969,58.0719866 C101.233987,52.627574 85.5849949,52.1892458 75.7049851,58.0719866 Z" id="Path"></path>
        </g>
    </g>
</svg>